:FULLY-SPECIFIED
:FORCE-ALL-JOINTS-BE-3DOF
:DEGREES
2141
root -2.37636 15.2914 -1.17127 -177.163 6.81403 -172.112
lfemur -54.9286 19.2085 -23.1796
ltibia 38.8257 -0 0
lfoot 10.0521 20.102 -0.391491
ltoes 6.73647 -0 0
rfemur 4.47544 -2.84075 26.6461
rtibia 42.1388 -0 0
rfoot -19.6086 6.41931 -0.0555914
rtoes -30.9289 0 0
lowerback 9.21843 0.972959 1.02632
upperback -2.33113 1.87791 3.7454
thorax -7.63192 1.02485 3.11702
lowerneck -5.9176 -1.25821 -5.90482
upperneck 8.66204 -1.4985 3.49266
head 3.88361 -0.791562 2.04047
lclavicle -3.19748e-14 -5.67282e-14 0
lhumerus 57.5175 -6.72153 99.0244
lradius 14.9927 -0 0
lwrist -58.2961 0 0
lhand -36.4959 42.4244 -0.705888
lfingers 7.12502 -0 0
lthumb -7.08818 61.2977 -2.92144
rclavicle -3.19748e-14 -5.67282e-14 0
rhumerus -56.4329 18.7058 -99.1566
rradius 114.69 -0 0
rwrist -86.7077 180 180
rhand -4.32627 -32.1159 0.359447
rfingers 7.12502 -0 0
rthumb 19.1824 -52.8546 5.04559
2142
root -2.35991 15.3042 -1.45281 -177.535 6.24687 -172.364
lfemur -54.1154 18.973 -23.1107
ltibia 39.006 -0 0
lfoot 9.19009 20.3524 -0.430437
ltoes 6.07383 -0 0
rfemur 3.42007 -2.75707 26.1674
rtibia 42.317 -0 0
rfoot -18.6904 6.49829 -0.0730699
rtoes -30.2754 0 0
lowerback 9.34591 0.906174 0.73947
upperback -2.2811 1.75152 3.72533
thorax -7.63779 0.971994 3.28141
lowerneck -5.94421 -1.32874 -5.93272
upperneck 8.90936 -1.61117 3.51695
head 3.96403 -0.854079 2.03411
lclavicle -3.19748e-14 -5.67282e-14 0
lhumerus 57.608 -7.50031 98.4477
lradius 15.5855 -0 0
lwrist -57.4399 0 0
lhand -36.506 42.0175 -0.775933
lfingers 7.12502 -0 0
lthumb -6.83206 59.8911 -3.15754
rclavicle -3.19748e-14 -5.67282e-14 0
rhumerus -55.89 18.3775 -98.6476
rradius 115.521 -0 0
rwrist -86.9995 180 180
rhand -2.54822 -31.9423 0.395654
rfingers 7.12502 -0 0
rthumb 20.61 -51.1427 5.72999
2143
root -2.34415 15.3177 -1.71521 -177.92 5.64125 -172.631
lfemur -53.2275 18.7144 -23.0303
ltibia 39.2313 -0 0
lfoot 8.27827 20.6009 -0.465576
ltoes 5.34027 -0 0
rfemur 2.27334 -2.6725 25.6663
rtibia 42.5224 -0 0
rfoot -17.73 6.5671 -0.0923932
rtoes -29.5644 0 0
lowerback 9.48078 0.838966 0.437604
upperback -2.22719 1.62134 3.70157
thorax -7.64324 0.917639 3.45115
lowerneck -5.96841 -1.40776 -5.96337
upperneck 9.16212 -1.73644 3.5449
head 4.04624 -0.922977 2.02864
lclavicle -3.19748e-14 -5.67282e-14 0
lhumerus 57.6046 -8.32457 97.8394
lradius 16.2801 -0 0
lwrist -56.4659 0 0
lhand -36.4934 41.6226 -0.840906
lfingers 7.12502 -0 0
lthumb -6.5704 58.5787 -3.36588
rclavicle -3.19748e-14 -5.67282e-14 0
rhumerus -55.24 18.0618 -98.0882
rradius 116.323 -0 0
rwrist -87.378 180 180
rhand -0.689248 -31.7688 0.427914
rfingers 7.12502 -0 0
rthumb 22.1268 -49.3478 6.39623
2144
root -2.32899 15.3319 -1.95997 -178.316 4.99936 -172.91
lfemur -52.2695 18.4338 -22.9401
ltibia 39.4999 -0 0
lfoot 7.32012 20.8469 -0.49657
ltoes 4.53942 -0 0
rfemur 1.04032 -2.58932 25.144
rtibia 42.7536 -0 0
rfoot -16.7308 6.62578 -0.113319
rtoes -28.799 0 0
lowerback 9.62257 0.771631 0.121826
upperback -2.16962 1.4878 3.67423
thorax -7.64829 0.861954 3.62568
lowerneck -5.99019 -1.49484 -5.99663
upperneck 9.41953 -1.87369 3.57622
head 4.13 -0.997923 2.02405
lclavicle -3.19748e-14 -5.67282e-14 0
lhumerus 57.5109 -9.19251 97.2035
lradius 17.0722 -0 0
lwrist -55.3797 0 0
lhand -36.4588 41.2404 -0.900559
lfingers 7.12502 -0 0
lthumb -6.30527 57.3614 -3.5471
rclavicle -3.19748e-14 -5.67282e-14 0
rhumerus -54.4879 17.7567 -97.482
rradius 117.094 -0 0
rwrist -87.8398 180 180
rhand 1.24402 -31.5958 0.455792
rfingers 7.12502 -0 0
rthumb 23.7288 -47.4744 7.03545
2145
root -2.31431 15.3466 -2.18861 -178.721 4.3234 -173.2
lfemur -51.246 18.1317 -22.8418
ltibia 39.8102 -0 0
lfoot 6.31918 21.0897 -0.52313
ltoes 3.67493 -0 0
rfemur -0.273884 -2.50971 24.6023
rtibia 43.0095 -0 0
rfoot -15.6961 6.67436 -0.135581
rtoes -27.9824 0 0
lowerback 9.77078 0.704461 -0.206756
upperback -2.10861 1.35131 3.64347
thorax -7.65294 0.80511 3.80445
lowerneck -6.00954 -1.58958 -6.03237
upperneck 9.68085 -2.02232 3.61065
head 4.21506 -1.07859 2.02029
lclavicle -3.19748e-14 -5.67282e-14 0
lhumerus 57.3305 -10.1023 96.5443
lradius 17.9573 -0 0
lwrist -54.1867 0 0
lhand -36.403 40.8715 -0.954672
lfingers 7.12502 -0 0
lthumb -6.03859 56.2398 -3.70191
rclavicle -3.19748e-14 -5.67282e-14 0
rhumerus -53.6385 17.4601 -96.8324
rradius 117.833 -0 0
rwrist -88.3818 180 180
rhand 3.24497 -31.4239 0.47892
rfingers 7.12502 -0 0
rthumb 25.4112 -45.5276 7.63906
2146
root -2.30003 15.3617 -2.40264 -179.134 3.61563 -173.498
lfemur -50.1616 17.8092 -22.7371
ltibia 40.1604 -0 0
lfoot 5.27897 21.329 -0.545029
ltoes 2.75043 -0 0
rfemur -1.66414 -2.43579 24.0428
rtibia 43.2888 -0 0
rfoot -14.6294 6.71291 -0.158888
rtoes -27.1179 0 0
lowerback 9.92492 0.637739 -0.547035
upperback -2.04438 1.21229 3.60942
thorax -7.65722 0.747274 3.98692
lowerneck -6.02645 -1.69157 -6.07042
upperneck 9.94529 -2.18172 3.64792
head 4.30118 -1.16463 2.01735
lclavicle -3.19748e-14 -5.67282e-14 0
lhumerus 57.0669 -11.0524 95.866
lradius 18.9311 -0 0
lwrist -52.8923 0 0
lhand -36.3265 40.5164 -1.00305
lfingers 7.12502 -0 0
lthumb -5.77215 55.2151 -3.83109
rclavicle -3.19748e-14 -5.67282e-14 0
rhumerus -52.6966 17.17 -96.1429
rradius 118.541 -0 0
rwrist -89.0008 180 180
rhand 5.30699 -31.2535 0.497006
rfingers 7.12502 -0 0
rthumb 27.1687 -43.5131 8.19888
2147
root -2.28602 15.3771 -2.60355 -179.552 2.87832 -173.805
lfemur -49.0208 17.4669 -22.6276
ltibia 40.5487 -0 0
lfoot 4.20302 21.5639 -0.562094
ltoes 1.76956 -0 0
rfemur -3.12529 -2.36956 23.4672
rtibia 43.5904 -0 0
rfoot -13.5342 6.74148 -0.18293
rtoes -26.2088 0 0
lowerback 10.0845 0.571742 -0.897899
upperback -1.97713 1.07117 3.57221
thorax -7.66113 0.688617 4.17254
lowerneck -6.04091 -1.80038 -6.11066
upperneck 10.2121 -2.35129 3.68779
head 4.38811 -1.25573 2.01519
lclavicle -3.19748e-14 -5.67282e-14 0
lhumerus 56.7233 -12.0408 95.1729
lradius 19.9892 -0 0
lwrist -51.502 0 0
lhand -36.2302 40.1758 -1.04551
lfingers 7.12502 -0 0
lthumb -5.50759 54.2879 -3.93548
rclavicle -3.19748e-14 -5.67282e-14 0
rhumerus -51.667 16.8843 -95.4166
rradius 119.214 -0 0
rwrist -89.6936 180 180
rhand 7.42346 -31.0852 0.509836
rfingers 7.12502 -0 0
rthumb 28.9951 -41.4374 8.70724
2148
root -2.2722 15.3926 -2.79286 -179.974 2.11378 -174.118
lfemur -47.8282 17.1059 -22.515
ltibia 40.9735 -0 0
lfoot 3.09487 21.794 -0.574212
ltoes 0.735951 -0 0
rfemur -4.65214 -2.31289 22.8772
rtibia 43.913 -0 0
rfoot -12.4138 6.76015 -0.207383
rtoes -25.2582 0 0
lowerback 10.249 0.506734 -1.25823
upperback -1.9071 0.928368 3.53198
thorax -7.66468 0.629306 4.36075
lowerneck -6.05292 -1.9156 -6.15293
upperneck 10.4805 -2.53042 3.73002
head 4.4756 -1.35154 2.0138
lclavicle -3.19748e-14 -5.67282e-14 0
lhumerus 56.3027 -13.0659 94.4694
lradius 21.1274 -0 0
lwrist -50.0212 0 0
lhand -36.1147 39.8504 -1.08191
lfingers 7.12502 -0 0
lthumb -5.24642 53.4592 -4.01594
rclavicle -3.19748e-14 -5.67282e-14 0
rhumerus -50.5543 16.601 -94.6568
rradius 119.852 -0 0
rwrist -89.543 0 0
rhand 9.58775 -30.9196 0.517273
rfingers 7.12502 -0 0
rthumb 30.8837 -39.3074 9.15709
2149
root -2.25846 15.4081 -2.97207 179.6 1.32436 -174.435
lfemur -46.5881 16.727 -22.4008
ltibia 41.433 -0 0
lfoot 1.95804 22.0186 -0.581327
ltoes -0.346755 0 0
rfemur -6.23948 -2.26749 22.275
rtibia 44.2555 -0 0
rfoot -11.2717 6.76899 -0.231909
rtoes -24.2693 0 0
lowerback 10.418 0.442973 -1.62693
upperback -1.83449 0.784302 3.48889
thorax -7.66787 0.56951 4.551
lowerneck -6.06247 -2.03681 -6.19709
upperneck 10.7497 -2.71848 3.77436
head 4.56342 -1.45174 2.01315
lclavicle -3.19748e-14 -5.67282e-14 0
lhumerus 55.8079 -14.1257 93.7597
lradius 22.3411 -0 0
lwrist -48.4555 0 0
lhand -35.9807 39.5407 -1.11213
lfingers 7.12502 -0 0
lthumb -4.99 52.7297 -4.07336
rclavicle -3.19748e-14 -5.67282e-14 0
rhumerus -49.3632 16.318 -93.8668
rradius 120.455 -0 0
rwrist -88.7122 0 0
rhand 11.7932 -30.7571 0.519263
rfingers 7.12502 -0 0
rthumb 32.8271 -37.131 9.54213
2150
root -2.2447 15.4234 -3.1427 179.174 0.512416 -174.756
lfemur -45.3051 16.3314 -22.2866
ltibia 41.9254 -0 0
lfoot 0.796063 22.237 -0.583445
ltoes -1.47492 0 0
rfemur -7.88204 -2.23492 21.6624
rtibia 44.6166 -0 0
rfoot -10.1112 6.7681 -0.256162
rtoes -23.2455 0 0
lowerback 10.5908 0.380704 -2.00285
upperback -1.75954 0.639395 3.44306
thorax -7.67072 0.509398 4.74275
lowerneck -6.06955 -2.1636 -6.24301
upperneck 11.019 -2.91486 3.8206
head 4.6513 -1.55599 2.01323
lclavicle -3.19748e-14 -5.67282e-14 0
lhumerus 55.2414 -15.2182 93.0482
lradius 23.6261 -0 0
lwrist -46.8102 0 0
lhand -35.8288 39.2474 -1.13607
lfingers 7.12502 -0 0
lthumb -4.73956 52.1004 -4.10864
rclavicle -3.19748e-14 -5.67282e-14 0
rhumerus -48.0983 16.0335 -93.0496
rradius 121.02 -0 0
rwrist -87.8172 0 0
rhand 14.0333 -30.5985 0.515833
rfingers 7.12502 -0 0
rthumb 34.817 -34.9164 9.85692
2151
root -2.2308 15.4385 -3.30626 178.748 -0.319633 -175.079
lfemur -43.9835 15.9199 -22.1736
ltibia 42.449 -0 0
lfoot -0.387531 22.4486 -0.58063
ltoes -2.64491 0 0
rfemur -9.57457 -2.21652 21.0415
rtibia 44.9951 -0 0
rfoot -8.93587 6.7576 -0.279789
rtoes -22.19 0 0
lowerback 10.7671 0.320159 -2.38489
upperback -1.68246 0.494065 3.39466
thorax -7.67321 0.449139 4.93545
lowerneck -6.07416 -2.29556 -6.29055
upperneck 11.2875 -3.11894 3.86852
head 4.73902 -1.66396 2.014
lclavicle -3.19748e-14 -5.67282e-14 0
lhumerus 54.6054 -16.3415 92.3395
lradius 24.9781 -0 0
lwrist -45.0908 0 0
lhand -35.6598 38.9712 -1.15365
lfingers 7.12502 -0 0
lthumb -4.49623 51.5721 -4.12269
rclavicle -3.19748e-14 -5.67282e-14 0
rhumerus -46.7644 15.7458 -92.2084
rradius 121.547 -0 0
rwrist -86.8611 0 0
rhand 16.3013 -30.4443 0.507092
rfingers 7.12502 -0 0
rthumb 36.8448 -32.6727 10.097
2152
root -2.21668 15.4531 -3.46424 178.324 -1.16935 -175.403
lfemur -42.6276 15.4938 -22.0633
ltibia 43.0021 -0 0
lfoot -1.58921 22.6528 -0.573004
ltoes -3.85309 0 0
rfemur -11.3118 -2.21347 20.4146
rtibia 45.3898 -0 0
rfoot -7.74906 6.73758 -0.302437
rtoes -21.1059 0 0
lowerback 10.9462 0.261558 -2.77193
upperback -1.60348 0.348733 3.34381
thorax -7.67535 0.388901 5.12855
lowerneck -6.07629 -2.43226 -6.33956
upperneck 11.5546 -3.33009 3.91792
head 4.82631 -1.77532 2.01546
lclavicle -3.19748e-14 -5.67282e-14 0
lhumerus 53.902 -17.4931 91.6379
lradius 26.3926 -0 0
lwrist -43.3028 0 0
lhand -35.4743 38.7127 -1.16484
lfingers 7.12502 -0 0
lthumb -4.26099 51.1454 -4.11637
rclavicle -3.19748e-14 -5.67282e-14 0
rhumerus -45.366 15.4532 -91.3464
rradius 122.034 -0 0
rwrist -85.8473 0 0
rhand 18.5907 -30.2951 0.493233
rfingers 7.12502 -0 0
rthumb 38.9012 -30.4092 10.2588
